<svg width="184" height="41" viewBox="0 0 184 41" fill="none" xmlns="http://www.w3.org/2000/svg">
<path d="M40.775 15.432H42.14C43.652 15.432 44.408 14.774 44.408 13.458C44.408 12.142 43.652 11.484 42.14 11.484H40.775V15.432ZM40.775 24H36.659V8.166H43.211C44.989 8.166 46.347 8.628 47.285 9.552C48.237 10.476 48.713 11.778 48.713 13.458C48.713 15.138 48.237 16.44 47.285 17.364C46.347 18.288 44.989 18.75 43.211 18.75H40.775V24ZM52.7678 18.561C52.7678 18.925 52.8308 19.261 52.9568 19.569C53.0968 19.863 53.2718 20.122 53.4818 20.346C53.7058 20.57 53.9648 20.745 54.2588 20.871C54.5668 20.997 54.8888 21.06 55.2248 21.06C55.5608 21.06 55.8758 20.997 56.1698 20.871C56.4778 20.745 56.7368 20.57 56.9468 20.346C57.1708 20.122 57.3458 19.863 57.4718 19.569C57.6118 19.261 57.6818 18.932 57.6818 18.582C57.6818 18.246 57.6118 17.931 57.4718 17.637C57.3458 17.329 57.1708 17.063 56.9468 16.839C56.7368 16.615 56.4778 16.44 56.1698 16.314C55.8758 16.188 55.5608 16.125 55.2248 16.125C54.8888 16.125 54.5668 16.188 54.2588 16.314C53.9648 16.44 53.7058 16.615 53.4818 16.839C53.2718 17.063 53.0968 17.322 52.9568 17.616C52.8308 17.91 52.7678 18.225 52.7678 18.561ZM48.7568 18.519C48.7568 17.721 48.9178 16.979 49.2398 16.293C49.5618 15.593 50.0098 14.991 50.5838 14.487C51.1578 13.969 51.8368 13.563 52.6208 13.269C53.4188 12.975 54.2868 12.828 55.2248 12.828C56.1488 12.828 57.0028 12.975 57.7868 13.269C58.5848 13.549 59.2708 13.948 59.8448 14.466C60.4328 14.97 60.8878 15.579 61.2098 16.293C61.5318 16.993 61.6928 17.77 61.6928 18.624C61.6928 19.478 61.5248 20.262 61.1888 20.976C60.8668 21.676 60.4188 22.285 59.8448 22.803C59.2708 23.307 58.5778 23.699 57.7658 23.979C56.9678 24.259 56.0998 24.399 55.1618 24.399C54.2378 24.399 53.3838 24.259 52.5998 23.979C51.8158 23.699 51.1368 23.3 50.5628 22.782C50.0028 22.264 49.5618 21.648 49.2398 20.934C48.9178 20.206 48.7568 19.401 48.7568 18.519ZM65.2172 13.227L67.8002 18.897L70.4882 13.227H72.8822L75.5702 19.065L78.2792 13.227H82.5002L76.8722 24H74.3312L71.6432 18.099L69.0812 24H66.4982L60.9752 13.227H65.2172ZM90.1227 17.049C89.9967 16.517 89.7377 16.09 89.3457 15.768C88.9537 15.446 88.4777 15.285 87.9177 15.285C87.3297 15.285 86.8467 15.439 86.4687 15.747C86.1047 16.055 85.8737 16.489 85.7757 17.049H90.1227ZM85.6707 19.254C85.6707 20.892 86.4407 21.711 87.9807 21.711C88.8067 21.711 89.4297 21.375 89.8497 20.703H93.5247C92.7827 23.167 90.9277 24.399 87.9597 24.399C87.0497 24.399 86.2167 24.266 85.4607 24C84.7047 23.72 84.0537 23.328 83.5077 22.824C82.9757 22.32 82.5627 21.718 82.2687 21.018C81.9747 20.318 81.8277 19.534 81.8277 18.666C81.8277 17.77 81.9677 16.965 82.2477 16.251C82.5277 15.523 82.9267 14.907 83.4447 14.403C83.9627 13.899 84.5857 13.514 85.3137 13.248C86.0557 12.968 86.8887 12.828 87.8127 12.828C88.7227 12.828 89.5417 12.968 90.2697 13.248C90.9977 13.514 91.6137 13.906 92.1177 14.424C92.6217 14.942 93.0067 15.579 93.2727 16.335C93.5387 17.077 93.6717 17.917 93.6717 18.855V19.254H85.6707ZM94.7944 13.227H98.5954V14.991C99.0014 14.347 99.4984 13.857 100.086 13.521C100.674 13.171 101.36 12.996 102.144 12.996C102.242 12.996 102.347 12.996 102.459 12.996C102.585 12.996 102.725 13.01 102.879 13.038V16.671C102.375 16.419 101.829 16.293 101.241 16.293C100.359 16.293 99.6944 16.559 99.2464 17.091C98.8124 17.609 98.5954 18.372 98.5954 19.38V24H94.7944V13.227ZM107.979 8.166V24H103.863V8.166H107.979ZM109.88 13.227H113.681V14.592C114.199 13.962 114.724 13.542 115.256 13.332C115.788 13.108 116.411 12.996 117.125 12.996C117.881 12.996 118.525 13.122 119.057 13.374C119.603 13.612 120.065 13.955 120.443 14.403C120.751 14.767 120.961 15.173 121.073 15.621C121.185 16.069 121.241 16.58 121.241 17.154V24H117.44V18.561C117.44 18.029 117.398 17.602 117.314 17.28C117.244 16.944 117.111 16.678 116.915 16.482C116.747 16.314 116.558 16.195 116.348 16.125C116.138 16.055 115.914 16.02 115.676 16.02C115.032 16.02 114.535 16.216 114.185 16.608C113.849 16.986 113.681 17.532 113.681 18.246V24H109.88V13.227ZM126.891 16.398V24H123.09V16.398H121.725V13.227H123.09V11.61C123.09 10.714 123.174 10 123.342 9.468C123.482 9.02 123.706 8.607 124.014 8.229C124.322 7.837 124.679 7.501 125.085 7.221C125.505 6.941 125.953 6.724 126.429 6.57C126.905 6.416 127.374 6.339 127.836 6.339C128.158 6.339 128.452 6.374 128.718 6.444C128.998 6.514 129.278 6.612 129.558 6.738V10.056C129.306 9.93 129.068 9.839 128.844 9.783C128.634 9.713 128.41 9.678 128.172 9.678C128.018 9.678 127.857 9.706 127.689 9.762C127.535 9.804 127.388 9.902 127.248 10.056C127.108 10.21 127.01 10.434 126.954 10.728C126.912 11.008 126.891 11.393 126.891 11.883V13.227H129.558V16.398H126.891ZM133.704 18.561C133.704 18.925 133.767 19.261 133.893 19.569C134.033 19.863 134.208 20.122 134.418 20.346C134.642 20.57 134.901 20.745 135.195 20.871C135.503 20.997 135.825 21.06 136.161 21.06C136.497 21.06 136.812 20.997 137.106 20.871C137.414 20.745 137.673 20.57 137.883 20.346C138.107 20.122 138.282 19.863 138.408 19.569C138.548 19.261 138.618 18.932 138.618 18.582C138.618 18.246 138.548 17.931 138.408 17.637C138.282 17.329 138.107 17.063 137.883 16.839C137.673 16.615 137.414 16.44 137.106 16.314C136.812 16.188 136.497 16.125 136.161 16.125C135.825 16.125 135.503 16.188 135.195 16.314C134.901 16.44 134.642 16.615 134.418 16.839C134.208 17.063 134.033 17.322 133.893 17.616C133.767 17.91 133.704 18.225 133.704 18.561ZM129.693 18.519C129.693 17.721 129.854 16.979 130.176 16.293C130.498 15.593 130.946 14.991 131.52 14.487C132.094 13.969 132.773 13.563 133.557 13.269C134.355 12.975 135.223 12.828 136.161 12.828C137.085 12.828 137.939 12.975 138.723 13.269C139.521 13.549 140.207 13.948 140.781 14.466C141.369 14.97 141.824 15.579 142.146 16.293C142.468 16.993 142.629 17.77 142.629 18.624C142.629 19.478 142.461 20.262 142.125 20.976C141.803 21.676 141.355 22.285 140.781 22.803C140.207 23.307 139.514 23.699 138.702 23.979C137.904 24.259 137.036 24.399 136.098 24.399C135.174 24.399 134.32 24.259 133.536 23.979C132.752 23.699 132.073 23.3 131.499 22.782C130.939 22.264 130.498 21.648 130.176 20.934C129.854 20.206 129.693 19.401 129.693 18.519ZM143.767 13.227H147.568V14.991C147.974 14.347 148.471 13.857 149.059 13.521C149.647 13.171 150.333 12.996 151.117 12.996C151.215 12.996 151.32 12.996 151.432 12.996C151.558 12.996 151.698 13.01 151.852 13.038V16.671C151.348 16.419 150.802 16.293 150.214 16.293C149.332 16.293 148.667 16.559 148.219 17.091C147.785 17.609 147.568 18.372 147.568 19.38V24H143.767V13.227ZM158.842 11.652V24H154.726V11.652H151.345V8.166H162.223V11.652H158.842ZM169.804 17.049C169.678 16.517 169.419 16.09 169.027 15.768C168.635 15.446 168.159 15.285 167.599 15.285C167.011 15.285 166.528 15.439 166.15 15.747C165.786 16.055 165.555 16.489 165.457 17.049H169.804ZM165.352 19.254C165.352 20.892 166.122 21.711 167.662 21.711C168.488 21.711 169.111 21.375 169.531 20.703H173.206C172.464 23.167 170.609 24.399 167.641 24.399C166.731 24.399 165.898 24.266 165.142 24C164.386 23.72 163.735 23.328 163.189 22.824C162.657 22.32 162.244 21.718 161.95 21.018C161.656 20.318 161.509 19.534 161.509 18.666C161.509 17.77 161.649 16.965 161.929 16.251C162.209 15.523 162.608 14.907 163.126 14.403C163.644 13.899 164.267 13.514 164.995 13.248C165.737 12.968 166.57 12.828 167.494 12.828C168.404 12.828 169.223 12.968 169.951 13.248C170.679 13.514 171.295 13.906 171.799 14.424C172.303 14.942 172.688 15.579 172.954 16.335C173.22 17.077 173.353 17.917 173.353 18.855V19.254H165.352ZM182.602 16.713C181.944 16.265 181.279 16.041 180.607 16.041C180.243 16.041 179.9 16.104 179.578 16.23C179.27 16.356 178.997 16.538 178.759 16.776C178.521 17 178.332 17.273 178.192 17.595C178.066 17.903 178.003 18.253 178.003 18.645C178.003 19.023 178.066 19.373 178.192 19.695C178.332 20.003 178.514 20.276 178.738 20.514C178.976 20.738 179.256 20.913 179.578 21.039C179.9 21.165 180.243 21.228 180.607 21.228C181.321 21.228 181.986 20.983 182.602 20.493V23.727C181.664 24.133 180.775 24.336 179.935 24.336C179.151 24.336 178.402 24.203 177.688 23.937C176.988 23.671 176.365 23.293 175.819 22.803C175.287 22.299 174.86 21.704 174.538 21.018C174.216 20.318 174.055 19.541 174.055 18.687C174.055 17.833 174.209 17.056 174.517 16.356C174.825 15.642 175.245 15.033 175.777 14.529C176.309 14.011 176.939 13.612 177.667 13.332C178.409 13.038 179.2 12.891 180.04 12.891C180.964 12.891 181.818 13.087 182.602 13.479V16.713Z" fill="white"/>
<path d="M35.5879 38V33.0508H37.208C38.2744 33.0508 38.8179 33.7173 38.8145 34.5889C38.8179 35.457 38.2744 36.127 37.2148 36.127H36.0732V38H35.5879ZM36.0732 35.6895H37.1943C37.9668 35.6929 38.3359 35.2212 38.3359 34.5889C38.3359 33.9497 37.9668 33.4849 37.1875 33.4883H36.0732V35.6895ZM43.8252 35.5254C43.8286 37.0771 42.9297 38.0684 41.6787 38.0684C40.4209 38.0684 39.5254 37.0737 39.5254 35.5254C39.5254 33.9736 40.4209 32.9824 41.6787 32.9824C42.9297 32.9824 43.8286 33.9736 43.8252 35.5254ZM40.0039 35.5254C40.0005 36.8379 40.7148 37.6104 41.6787 37.6104C42.6357 37.6104 43.3535 36.8413 43.3535 35.5254C43.3535 34.2095 42.6357 33.4404 41.6787 33.4404C40.7183 33.4404 40.0005 34.2061 40.0039 35.5254ZM45.6572 38L44.3037 33.0508H44.8027L45.9033 37.2549H45.9443L47.0518 33.0508H47.6055L48.7129 37.2549H48.7539L49.8545 33.0508H50.3535L49 38H48.4805L47.3457 33.8643H47.3115L46.1768 38H45.6572ZM51.0508 38V33.0508H53.9492V33.4883H51.5361V35.3066H53.7988V35.7373H51.5361V37.5625H53.9971V38H51.0508ZM54.9814 38V33.0508H56.6016C57.668 33.0508 58.2114 33.6694 58.208 34.541C58.2114 35.2041 57.897 35.7134 57.2783 35.9185L58.4131 38H57.8525L56.7793 36.0107C56.7246 36.0142 56.6665 36.0176 56.6084 36.0176H55.4668V38H54.9814ZM55.4668 35.5732H56.5879C57.3604 35.5732 57.7295 35.1768 57.7295 34.541C57.7295 33.9053 57.3604 33.4849 56.5811 33.4883H55.4668V35.5732ZM61.3525 33.0508V38H60.8672V33.0508H61.3525ZM66.3975 33.0508V38H65.9326L63.0547 33.9189H63.0137V38H62.5283V33.0508H63L65.8779 37.1387H65.9189V33.0508H66.3975ZM67.5732 38V33.0508H70.4648V33.4883H68.0586V35.3066H70.2393V35.7373H68.0586V38H67.5732ZM75.5303 35.5254C75.5337 37.0771 74.6348 38.0684 73.3838 38.0684C72.126 38.0684 71.2305 37.0737 71.2305 35.5254C71.2305 33.9736 72.126 32.9824 73.3838 32.9824C74.6348 32.9824 75.5337 33.9736 75.5303 35.5254ZM71.709 35.5254C71.7056 36.8379 72.4199 37.6104 73.3838 37.6104C74.3408 37.6104 75.0586 36.8413 75.0586 35.5254C75.0586 34.2095 74.3408 33.4404 73.3838 33.4404C72.4233 33.4404 71.7056 34.2061 71.709 35.5254ZM76.4941 38V33.0508H78.1143C79.1807 33.0508 79.7241 33.6694 79.7207 34.541C79.7241 35.2041 79.4097 35.7134 78.791 35.9185L79.9258 38H79.3652L78.292 36.0107C78.2373 36.0142 78.1792 36.0176 78.1211 36.0176H76.9795V38H76.4941ZM76.9795 35.5732H78.1006C78.873 35.5732 79.2422 35.1768 79.2422 34.541C79.2422 33.9053 78.873 33.4849 78.0938 33.4883H76.9795V35.5732ZM80.6914 33.0508H81.2588L83.0293 37.3027H83.0771L84.8408 33.0508H85.415V38H84.9502V34.0557H84.9092L83.2686 38H82.8311L81.1904 34.0557H81.1494V38H80.6914V33.0508ZM86.6455 38H86.1328L87.9307 33.0508H88.457L90.2549 38H89.7422L89.2227 36.5303H87.165L86.6455 38ZM87.3188 36.0996H89.0688L88.2109 33.6797H88.1768L87.3188 36.0996ZM90.0977 33.4883V33.0508H93.7139V33.4883H92.1553V38H91.6631V33.4883H90.0977ZM95.0811 33.0508V38H94.5957V33.0508H95.0811ZM100.338 35.5254C100.341 37.0771 99.4424 38.0684 98.1914 38.0684C96.9336 38.0684 96.0381 37.0737 96.0381 35.5254C96.0381 33.9736 96.9336 32.9824 98.1914 32.9824C99.4424 32.9824 100.341 33.9736 100.338 35.5254ZM96.5166 35.5254C96.5132 36.8379 97.2275 37.6104 98.1914 37.6104C99.1484 37.6104 99.8662 36.8413 99.8662 35.5254C99.8662 34.2095 99.1484 33.4404 98.1914 33.4404C97.231 33.4404 96.5132 34.2061 96.5166 35.5254ZM105.171 33.0508V38H104.706L101.828 33.9189H101.787V38H101.302V33.0508H101.773L104.651 37.1387H104.692V33.0508H105.171ZM107.741 33.4883V33.0508H111.357V33.4883H109.799V38H109.307V33.4883H107.741ZM112.239 38V33.0508H115.138V33.4883H112.725V35.3066H114.987V35.7373H112.725V37.5625H115.186V38H112.239ZM119.581 34.6025C119.444 33.9292 118.856 33.4404 118.104 33.4404C117.175 33.4404 116.426 34.1753 116.43 35.5254C116.426 36.8789 117.175 37.6104 118.104 37.6104C118.856 37.6104 119.441 37.125 119.581 36.4482H120.073C119.909 37.3711 119.154 38.0684 118.104 38.0684C116.847 38.0684 115.951 37.0771 115.951 35.5254C115.951 33.9736 116.847 32.9824 118.104 32.9824C119.15 32.9824 119.906 33.6694 120.073 34.6025H119.581ZM120.996 38V33.0508H121.481V35.3066H124.25V33.0508H124.742V38H124.25V35.7373H121.481V38H120.996ZM129.787 33.0508V38H129.322L126.444 33.9189H126.403V38H125.918V33.0508H126.39L129.268 37.1387H129.309V33.0508H129.787ZM135.044 35.5254C135.047 37.0771 134.148 38.0684 132.897 38.0684C131.64 38.0684 130.744 37.0737 130.744 35.5254C130.744 33.9736 131.64 32.9824 132.897 32.9824C134.148 32.9824 135.047 33.9736 135.044 35.5254ZM131.223 35.5254C131.219 36.8379 131.934 37.6104 132.897 37.6104C133.854 37.6104 134.572 36.8413 134.572 35.5254C134.572 34.2095 133.854 33.4404 132.897 33.4404C131.937 33.4404 131.219 34.2061 131.223 35.5254ZM136.008 38V33.0508H136.493V37.5625H138.838V38H136.008ZM143.609 35.5254C143.613 37.0771 142.714 38.0684 141.463 38.0684C140.205 38.0684 139.31 37.0737 139.31 35.5254C139.31 33.9736 140.205 32.9824 141.463 32.9824C142.714 32.9824 143.613 33.9736 143.609 35.5254ZM139.788 35.5254C139.785 36.8379 140.499 37.6104 141.463 37.6104C142.42 37.6104 143.138 36.8413 143.138 35.5254C143.138 34.2095 142.42 33.4404 141.463 33.4404C140.502 33.4404 139.785 34.2061 139.788 35.5254ZM147.984 34.5957C147.803 33.9497 147.287 33.4404 146.494 33.4404C145.544 33.4404 144.83 34.2061 144.833 35.5254C144.83 36.8413 145.541 37.6104 146.528 37.6104C147.41 37.6104 148.036 37.002 148.046 36.0176H146.631V35.5869H148.518V36.0107C148.521 37.2754 147.687 38.0684 146.528 38.0684C145.223 38.0684 144.354 37.0771 144.354 35.5254C144.354 33.9702 145.233 32.9824 146.494 32.9824C147.567 32.9824 148.323 33.7104 148.49 34.5957H147.984ZM148.894 33.0508H149.454L150.903 35.3887H150.944L152.394 33.0508H152.954L151.17 35.8809V38H150.678V35.8809L148.894 33.0508Z" fill="white"/>
<path d="M0 9.64925L4 7.18171L11 11.3765L7.00001 13.5973V36.1753L0 40V9.64925Z" fill="url(#paint0_linear_60984_93)"/>
<path d="M0 9.64925L4 7.18171L11 11.3765L7.00001 13.5973V36.1753L0 40V9.64925Z" fill="white"/>
<path d="M13.75 2L6.62498 6.07144L19.75 13.5974V18.2858L27 14.2143V9.64938L13.75 2Z" fill="url(#paint1_linear_60984_93)"/>
<path d="M13.75 2L6.62498 6.07144L19.75 13.5974V18.2858L27 14.2143V9.64938L13.75 2Z" fill="white"/>
<path d="M9.25 30.5001V22.3572L13.25 24.578L27 16.9286V25.0715L13.25 32.8442L9.25 30.5001Z" fill="url(#paint2_linear_60984_93)"/>
<path d="M9.25 30.5001V22.3572L13.25 24.578L27 16.9286V25.0715L13.25 32.8442L9.25 30.5001Z" fill="white"/>
<defs>
<linearGradient id="paint0_linear_60984_93" x1="1.39437" y1="32.0731" x2="11.3419" y2="31.0422" gradientUnits="userSpaceOnUse">
<stop stop-color="#2B80C2"/>
<stop offset="1" stop-color="#2869B3"/>
</linearGradient>
<linearGradient id="paint1_linear_60984_93" x1="9.20773" y1="14.3521" x2="25.4072" y2="8.08575" gradientUnits="userSpaceOnUse">
<stop stop-color="#2B80C2"/>
<stop offset="1" stop-color="#2869B3"/>
</linearGradient>
<linearGradient id="paint2_linear_60984_93" x1="11.5" y1="29" x2="26" y2="24" gradientUnits="userSpaceOnUse">
<stop stop-color="#2B80C2"/>
<stop offset="1" stop-color="#2869B3"/>
</linearGradient>
</defs>
</svg>
